<?xml version="1.0" standalone="no"?>
<!DOCTYPE svg PUBLIC "-//W3C//DTD SVG 20010904//EN"
 "http://www.w3.org/TR/2001/REC-SVG-20010904/DTD/svg10.dtd">
<svg version="1.0" xmlns="http://www.w3.org/2000/svg"
 width="1200.000000pt" height="1200.000000pt" viewBox="0 0 1200.000000 1200.000000"
 preserveAspectRatio="xMidYMid meet">

<g transform="translate(0.000000,1200.000000) scale(0.100000,-0.100000)"
fill="#000000" stroke="none">
<path d="M4732 8490 c-199 -52 -365 -209 -422 -400 -11 -36 -22 -76 -24 -91
-4 -19 -18 -30 -63 -49 -78 -32 -144 -96 -179 -173 -25 -55 -28 -77 -33 -201
l-6 -138 -51 -19 c-63 -24 -141 -98 -175 -166 -21 -42 -24 -66 -29 -197 l-5
-148 -50 -19 c-94 -35 -169 -117 -199 -219 -11 -36 -16 -92 -16 -172 l0 -118
-65 0 -65 0 0 41 c0 22 -5 59 -11 83 -10 40 -8 46 19 90 72 113 82 280 25 397
-34 69 -113 158 -163 184 -27 14 -28 18 -19 43 6 15 11 59 11 99 0 183 -146
327 -332 327 -66 1 -85 -4 -142 -32 -123 -61 -188 -166 -188 -305 0 -56 6 -84
26 -127 31 -68 93 -133 159 -168 44 -24 61 -27 145 -27 84 0 101 3 145 27 28
15 61 36 75 47 l24 19 41 -28 c69 -47 125 -145 125 -217 0 -47 -16 -105 -43
-161 -17 -35 -24 -41 -41 -35 -12 3 -38 7 -60 8 -28 1 -45 8 -60 26 -97 113
-289 209 -417 209 -21 0 -40 13 -75 50 -26 27 -72 62 -103 77 -48 24 -68 28
-141 28 -73 -1 -93 -5 -140 -29 -93 -47 -146 -111 -175 -211 -47 -160 43 -335
203 -395 78 -30 185 -24 257 13 103 53 174 155 183 265 l5 64 40 -5 c58 -8
160 -62 218 -115 l51 -47 -22 -42 c-20 -40 -21 -52 -18 -245 3 -200 3 -204 31
-255 l27 -53 -144 0 c-140 0 -145 -1 -163 -24 -10 -13 -59 -132 -108 -265
l-90 -241 -351 0 c-340 0 -352 -1 -378 -21 l-26 -20 0 -429 0 -429 26 -20 27
-21 1953 2 c1860 3 1954 4 1971 21 17 16 18 48 18 448 l0 431 -24 19 c-22 18
-50 19 -821 19 l-797 0 -7 38 c-11 70 -6 86 76 223 l81 137 43 6 c73 10 169
60 234 122 71 67 108 127 130 209 16 58 18 60 61 73 84 25 152 63 211 119 108
104 148 207 148 391 0 87 -3 105 -19 121 -10 10 -24 20 -31 23 -9 3 -4 20 16
58 28 54 29 59 32 238 3 155 1 187 -12 208 -9 13 -23 24 -31 24 -19 0 -20 -2
13 66 26 57 27 67 30 244 l4 185 -31 25 -30 26 27 54 c26 53 27 62 30 238 4
179 3 185 -19 208 -21 23 -29 24 -138 23 -81 0 -138 -6 -189 -19z m208 -243
c0 -130 -1 -134 -29 -179 -50 -78 -83 -88 -305 -88 l-188 0 7 33 c13 66 76
175 134 230 93 89 192 127 354 136 l27 1 0 -133z m0 -532 c0 -161 -18 -204
-107 -249 -28 -14 -77 -16 -358 -16 l-325 0 0 120 c0 130 11 170 62 217 56 52
60 53 406 53 l322 0 0 -125z m-1946 -242 c58 -41 89 -104 84 -175 -8 -109 -87
-182 -198 -182 -91 1 -160 53 -186 140 -27 95 12 184 101 230 66 33 140 29
199 -13z m1946 -290 c0 -149 -14 -185 -88 -238 l-44 -30 -464 -3 -464 -3 0
118 c0 103 3 124 24 169 24 52 65 89 114 104 15 5 228 9 475 9 l447 1 0 -127z
m-2485 -303 c40 -25 80 -88 90 -141 10 -56 -12 -118 -59 -165 -98 -99 -250
-73 -313 54 -22 44 -25 61 -20 105 8 66 47 123 107 155 37 20 55 23 102 19 34
-3 72 -14 93 -27z m2483 -182 c-5 -134 -66 -226 -186 -285 l-57 -28 -537 -3
-538 -3 0 126 c0 106 3 132 20 165 21 42 67 81 115 98 19 7 233 11 609 11
l578 1 -4 -82z m-1746 -205 c15 -13 18 -31 18 -99 0 -93 11 -127 47 -143 17
-8 213 -11 653 -11 l629 0 -14 -40 c-21 -60 -73 -127 -124 -161 -89 -58 -97
-59 -651 -59 l-506 0 -52 26 c-39 19 -59 38 -80 72 -26 45 -27 53 -30 212 -3
157 -2 167 18 193 25 31 64 36 92 10z m-62 -702 c-47 -27 -105 -62 -130 -78
l-45 -28 -29 -117 -29 -118 -124 0 c-96 0 -124 3 -120 13 2 6 35 94 72 195
l68 182 211 0 211 0 -85 -49z m466 -71 l-119 -120 7 -42 c4 -24 9 -58 12 -75
l6 -33 -231 0 c-263 0 -242 -9 -213 94 l17 59 205 118 205 118 114 0 115 1
-118 -120z m476 88 c-131 -215 -132 -217 -113 -315 l8 -43 -163 0 -164 0 -5
25 c-3 14 -8 37 -11 52 -5 24 10 42 138 170 l143 143 93 0 94 0 -20 -32z
m-537 -555 c10 -83 12 -86 54 -79 99 17 93 14 86 59 -4 23 -9 50 -11 60 -5 16
7 17 159 17 187 0 168 10 183 -93 l7 -49 46 7 c75 11 92 17 87 30 -2 7 -8 33
-11 59 l-7 46 741 0 741 0 0 -65 0 -65 -100 0 -100 0 0 -65 0 -65 100 0 100 0
0 -65 0 -65 -365 0 -365 0 0 -70 0 -70 365 0 365 0 0 -65 0 -65 -1865 0 -1865
0 0 65 0 65 300 0 300 0 0 70 0 70 -300 0 -301 0 3 63 3 62 233 3 232 2 0 65
0 65 -235 0 -235 0 0 65 0 65 824 0 824 0 7 -57z"/>
<path d="M4350 7645 l0 -65 65 0 65 0 0 65 0 65 -65 0 -65 0 0 -65z"/>
<path d="M2810 7310 l0 -70 70 0 70 0 0 70 0 70 -70 0 -70 0 0 -70z"/>
<path d="M4680 7110 l0 -70 65 0 65 0 0 70 0 70 -65 0 -65 0 0 -70z"/>
<path d="M2280 6710 l0 -70 70 0 70 0 0 70 0 70 -70 0 -70 0 0 -70z"/>
<path d="M3810 6580 l0 -70 70 0 70 0 0 70 0 70 -70 0 -70 0 0 -70z"/>
<path d="M4610 5115 l0 -65 70 0 70 0 0 65 0 65 -70 0 -70 0 0 -65z"/>
<path d="M3480 4980 l0 -70 365 0 365 0 0 70 0 70 -365 0 -365 0 0 -70z"/>
<path d="M3010 4850 l0 -70 70 0 70 0 0 70 0 70 -70 0 -70 0 0 -70z"/>
<path d="M6310 6510 l0 -1970 1970 0 1970 0 0 1970 0 1970 -1970 0 -1970 0 0
-1970z m1224 1535 c170 -26 272 -73 373 -174 87 -87 140 -198 169 -356 16 -89
31 -436 20 -478 l-6 -27 -218 2 -217 3 -5 220 c-4 198 -7 225 -27 267 -39 86
-104 126 -206 127 -95 1 -165 -39 -210 -124 l-22 -40 0 -945 0 -945 24 -49
c31 -61 83 -100 159 -116 47 -10 68 -10 98 0 96 29 130 56 161 125 15 34 19
79 23 320 l5 280 209 3 c157 2 212 -1 224 -10 13 -11 14 -48 9 -283 -6 -271
-14 -339 -52 -450 -77 -224 -238 -358 -478 -401 -97 -17 -230 -18 -313 -3
-278 49 -437 195 -516 474 l-23 80 0 980 0 980 28 90 c70 223 193 356 388 419
141 45 254 53 403 31z m1318 -643 l3 -607 230 -3 c127 -1 240 0 253 3 l22 5 0
605 c0 333 3 605 8 605 185 4 447 -1 453 -7 5 -5 8 -649 7 -1494 l-3 -1484
-232 -3 -233 -2 -2 672 -3 673 -252 3 -253 2 0 -675 0 -675 -232 2 -233 3 -3
1489 c-1 881 2 1492 7 1495 5 3 111 5 235 3 l226 -3 2 -607z"/>
<path d="M2417 8265 c-37 -74 -67 -146 -67 -159 0 -15 11 -33 26 -45 23 -18
41 -21 116 -21 68 0 89 -3 85 -12 -3 -7 -24 -60 -46 -117 -23 -57 -38 -107
-34 -111 4 -4 32 -16 61 -28 l53 -21 8 22 c5 12 36 89 70 171 33 82 61 159 61
172 0 12 -12 32 -26 43 -22 17 -41 21 -110 21 -46 0 -84 3 -84 8 0 4 18 40 40
80 22 40 40 75 40 78 0 6 -102 54 -115 54 -6 0 -41 -61 -78 -135z"/>
<path d="M1950 7929 c-39 -78 -70 -147 -70 -154 0 -7 9 -24 21 -39 19 -25 25
-26 115 -26 52 0 94 -4 94 -9 0 -5 -20 -58 -45 -117 -24 -60 -41 -112 -37
-116 9 -8 114 -50 117 -46 13 13 135 338 135 359 0 47 -26 59 -128 59 l-92 0
40 80 c22 44 40 83 40 88 0 7 -102 62 -115 62 -3 0 -37 -64 -75 -141z"/>
<path d="M2841 4037 c-13 -6 -34 -25 -45 -40 -19 -26 -21 -45 -24 -194 -5
-203 1 -245 37 -285 52 -58 167 -47 202 19 8 15 14 55 14 92 l0 66 -37 3 -38
3 -1 -43 c-2 -67 -12 -93 -39 -96 -44 -7 -50 17 -50 203 0 189 6 213 52 202
26 -7 38 -37 38 -94 0 -22 4 -24 38 -21 l37 3 0 56 c0 31 -7 68 -14 82 -26 49
-116 72 -170 44z"/>
<path d="M3393 4034 c-56 -28 -63 -59 -63 -269 0 -150 3 -194 16 -220 39 -84
187 -87 229 -5 12 23 15 69 15 225 0 216 -6 242 -60 270 -37 19 -96 19 -137
-1z m97 -74 c12 -7 16 -39 18 -156 5 -189 -1 -232 -34 -240 -50 -13 -54 3 -54
200 0 186 4 206 40 206 8 0 22 -5 30 -10z"/>
<path d="M5533 4030 c-50 -30 -56 -52 -61 -207 -8 -270 12 -331 114 -340 35
-4 60 0 82 11 51 26 62 60 62 191 l0 115 -60 0 -60 0 0 -40 c0 -33 3 -40 20
-40 18 0 20 -7 20 -68 0 -73 -10 -92 -47 -92 -36 0 -43 35 -43 205 0 170 7
205 43 205 34 0 47 -19 47 -67 l0 -43 40 0 40 0 0 50 c0 28 -7 64 -15 80 -30
58 -120 78 -182 40z"/>
<path d="M3910 3765 l0 -275 79 0 c93 0 133 12 158 48 16 24 18 50 18 223 0
148 -3 202 -14 222 -22 40 -68 57 -160 57 l-81 0 0 -275z m158 183 c8 -8 12
-63 12 -183 0 -187 -2 -195 -57 -195 l-33 0 0 195 0 195 33 0 c18 0 38 -5 45
-12z"/>
<path d="M4480 3765 l0 -275 45 0 45 0 0 275 0 275 -45 0 -45 0 0 -275z"/>
<path d="M4890 3765 l0 -275 40 0 40 0 1 188 0 187 43 -160 c23 -88 46 -172
50 -187 6 -25 11 -28 51 -28 l45 0 0 275 0 275 -40 0 -40 0 -1 -152 -1 -153
-32 125 c-18 69 -36 137 -39 153 -7 25 -11 27 -62 27 l-55 0 0 -275z"/>
<path d="M6430 3765 l0 -275 45 0 45 0 0 125 0 125 45 0 45 0 0 -125 0 -125
45 0 45 0 0 275 0 275 -45 0 -45 0 0 -110 0 -110 -45 0 -45 0 0 110 0 110 -45
0 -45 0 0 -275z"/>
<path d="M7020 3765 l0 -275 115 0 115 0 0 40 0 40 -75 0 -75 0 0 85 0 85 60
0 60 0 0 40 0 40 -60 0 -60 0 0 70 0 70 75 0 75 0 0 40 0 40 -115 0 -115 0 0
-275z"/>
<path d="M7560 3765 l0 -275 45 0 45 0 0 120 c0 118 0 120 23 120 47 0 52 -12
55 -130 l4 -110 46 0 47 0 -6 114 c-4 83 -10 120 -22 140 -10 14 -22 26 -27
26 -5 0 1 11 14 23 30 30 42 108 26 166 -17 63 -53 81 -162 81 l-88 0 0 -275z
m160 176 c15 -30 12 -97 -6 -115 -8 -9 -26 -16 -40 -16 -23 0 -24 2 -24 75 l0
75 30 0 c19 0 33 -7 40 -19z"/>
<path d="M8130 3765 l0 -275 40 0 40 0 1 188 1 187 19 -120 c10 -66 24 -150
30 -187 l11 -68 37 0 37 0 29 198 30 197 3 -197 2 -198 40 0 40 0 0 275 0 275
-63 0 -64 0 -23 -180 c-13 -99 -27 -177 -30 -173 -4 5 -18 86 -30 181 l-23
172 -63 0 -64 0 0 -275z"/>
<path d="M8810 3765 l0 -275 45 0 45 0 0 275 0 275 -45 0 -45 0 0 -275z"/>
<path d="M9200 4000 l0 -40 45 0 45 0 0 -235 0 -235 40 0 40 0 0 235 0 235 45
0 45 0 0 40 0 40 -130 0 -130 0 0 -40z"/>
</g>
</svg>
